Coordinates
version=1
nRows=5
nColumns=63
inDegrees=yes

Units are S.I. units (second, meters, Newtons, ...)
If the header above contains a line with 'inDegrees', this indicates whether rotational values are in degrees (yes) or radians (no).

endheader
time	pelvis_tilt	pelvis_list	pelvis_rotation	pelvis_tx	pelvis_ty	pelvis_tz	hip_flexion_r	hip_adduction_r	hip_rotation_r	knee_angle_r	knee_angle_r_beta	ankle_angle_r	subtalar_angle_r	mtp_angle_r	hip_flexion_l	hip_adduction_l	hip_rotation_l	knee_angle_l	knee_angle_l_beta	ankle_angle_l	subtalar_angle_l	mtp_angle_l	L5_S1_Flex_Ext	L5_S1_Lat_Bending	L5_S1_axial_rotation	L4_L5_Flex_Ext	L4_L5_Lat_Bending	L4_L5_axial_rotation	L3_L4_Flex_Ext	L3_L4_Lat_Bending	L3_L4_axial_rotation	L2_L3_Flex_Ext	L2_L3_Lat_Bending	L2_L3_axial_rotation	L1_L2_Flex_Ext	L1_L2_Lat_Bending	L1_L2_axial_rotation	L1_T12_Flex_Ext	L1_T12_Lat_Bending	L1_T12_axial_rotation	Abs_r3	Abs_r2	Abs_r1	Abs_t1	Abs_t2	neck_flexion	neck_bending	neck_rotation	arm_flex_r	arm_add_r	arm_rot_r	elbow_flex_r	pro_sup_r	wrist_flex_r	wrist_dev_r	arm_flex_l	arm_add_l	arm_rot_l	elbow_flex_l	pro_sup_l	wrist_flex_l	wrist_dev_l
      5.10869565	     -2.87133744	     -8.51317272	    101.14322616	      0.09384593	      0.45821276	      0.86130907	     12.22848065	     -0.05075766	    -11.52391138	      8.54330295	      0.14910877	     29.10762976	     14.50838032	      0.00000000	     14.29181214	     -0.58974238	     -0.24328134	      9.81802246	      0.17135682	     25.90204078	     10.15538212	      0.00000000	     -0.28265499	      0.14469015	      0.14654666	     -0.52491859	      0.19243790	      0.15570583	     -0.46437389	      0.35179963	      0.15570583	     -0.32304639	      0.35179963	      0.12822833	     -0.26247343	      0.29505215	      0.11906916	     -0.16150906	      0.22412504	      0.10991000	     -2.01897635	      1.63676390	      0.81504856	      0.00000000	      0.00000000	      5.03836173	     -4.49255843	     -2.99328014	      5.90831014	    -13.41514928	     50.04969733	     21.02811785	     72.12375875	     -9.68375040	     -1.66195808	      2.29233081	    -15.62484175	     34.92939191	     57.36755064	     88.80055119	    -14.31493765	      8.59913897
      5.13043478	     -2.82878337	     -8.76548588	    101.55559487	      0.09379091	      0.45774280	      0.86121486	     12.42896169	     -0.08060553	    -11.63750728	      8.47314353	      0.14788425	     29.11472947	     14.14526457	      0.00000000	     14.62232320	     -0.49497940	      0.26441427	      9.83746660	      0.17169618	     25.92774354	     10.02523836	      0.00000000	     -0.25317081	      0.14755304	      0.16322616	     -0.47016351	      0.19624554	      0.17342780	     -0.41593433	      0.35876045	      0.17342780	     -0.28934892	      0.35876045	      0.14282289	     -0.23509442	      0.30089015	      0.13262126	     -0.14466180	      0.22855965	      0.12241962	     -1.80837379	      1.66914947	      0.90781494	      0.00000000	      0.00000000	      4.76656319	     -4.57785944	     -3.34120248	      6.25718794	    -13.60358485	     52.29975888	     20.68387579	     74.17460420	    -11.17593030	     -2.46256803	      2.08281440	    -15.57650875	     34.57257437	     57.77846445	     88.76984609	    -13.92404393	      9.29364863
      5.15217391	     -2.84273791	     -8.95211294	    101.76416314	      0.09383974	      0.45749897	      0.86097219	     12.61388962	     -0.16357095	    -11.83578444	      8.52946192	      0.14886719	     29.19323119	     14.16113219	      0.00000000	     14.86307806	     -0.41845833	      0.31750690	      9.92116809	      0.17315705	     25.97359530	     10.19932441	      0.00000000	     -0.23300955	      0.14974846	      0.17616750	     -0.43272204	      0.19916545	      0.18717797	     -0.38281139	      0.36409840	      0.18717797	     -0.26630661	      0.36409840	      0.15414656	     -0.21637267	      0.30536705	      0.14313609	     -0.13314166	      0.23196036	      0.13212563	     -1.66436392	      1.69398449	      0.97979079	      0.00000000	      0.00000000	      4.59707723	     -4.78604589	     -3.49390241	      6.80129952	    -13.70777345	     54.54091545	     20.26822038	     76.70032597	    -12.22827333	     -2.30797962	      1.54471705	    -15.33531614	     33.48724432	     58.08531719	     88.75170847	    -13.32494708	      9.48481197
      5.17391304	     -2.82142323	     -9.10418273	    101.88905541	      0.09400125	      0.45722840	      0.86078699	     12.80022215	     -0.23123640	    -12.55002538	      8.63923135	      0.15078303	     29.34408876	     14.92105677	      0.00000000	     15.10622084	     -0.51142393	     -0.94159708	     10.09364798	      0.17616739	     26.29995905	     11.99723117	      0.00000000	     -0.22363288	      0.16107095	      0.17897796	     -0.41530862	      0.21422436	      0.19016409	     -0.36740646	      0.39162791	      0.19016409	     -0.25559002	      0.39162791	      0.15660572	     -0.20766549	      0.32845588	      0.14541960	     -0.12778383	      0.24949890	      0.13423347	     -1.59738729	      1.82206681	      0.99542175	      0.00000000	      0.00000000	      4.78616722	     -5.06585202	     -3.44392216	      6.76273960	    -13.80210968	     52.42092631	     20.72376747	     83.38344776	    -12.53201314	     -0.86055481	      0.84320292	    -15.04115160	     32.12976537	     58.34581207	     88.75435358	    -12.66712676	      8.92620281
      5.19565217	     -2.89141320	     -9.21626608	    101.84472437	      0.09443574	      0.45712910	      0.86054015	     12.89964879	     -0.26014553	    -12.07039732	      8.62643168	      0.15055964	     29.29591675	     14.36101587	      0.00000000	     15.17370395	     -0.40728158	     -0.73526818	     10.06442034	      0.17565727	     26.29289042	     11.61569467	      0.00000000	     -0.22040342	      0.16164593	      0.17511911	     -0.40931118	      0.21498909	      0.18606405	     -0.36210077	      0.39302592	      0.18606405	     -0.25189906	      0.39302592	      0.15322922	     -0.20466661	      0.32962838	      0.14228427	     -0.12593851	      0.25038955	      0.13133933	     -1.57431956	      1.82857110	      0.97395994	      0.00000000	      0.00000000	      4.94671394	     -5.30129505	     -3.49086675	      7.62248048	    -13.81419021	     55.74561165	     20.17870751	     84.91624486	    -13.27309905	     -0.80350389	      0.11163311	    -14.86352290	     31.03797628	     58.56521468	     88.75442155	    -12.97611018	      7.76856835
